HIERARCHY
ROOT root
{
	OFFSET	0	13.1	24.9
	CHANNELS 6  Xposition Yposition Zposition Xrotation Yrotation Zrotation
	JOINT spine_1
	{
		OFFSET	0	9.99999	0
		CHANNELS 3  Xrotation Yrotation Zrotation
		JOINT spine_2
		{
			OFFSET	0	112	-10
			CHANNELS 3  Xrotation Yrotation Zrotation
			JOINT spine_3
			{
				OFFSET	0	206.5	19.3
				CHANNELS 3  Xrotation Yrotation Zrotation
				JOINT spine_4
				{
					OFFSET	0	110.4	14.6
					CHANNELS 3  Xrotation Yrotation Zrotation
					JOINT neck_1
					{
						OFFSET	0	71.8	-50.3
						CHANNELS 3  Xrotation Yrotation Zrotation
						JOINT neck_2
						{
							OFFSET	0	86.2	-25.8
							CHANNELS 3  Xrotation Yrotation Zrotation
							JOINT head_ee
							{
								OFFSET	0	179.8	-8.7
								CHANNELS 3  Xrotation Yrotation Zrotation
								End Site
								{
									OFFSET	1	0	0
								}
							}
						}
					}
					JOINT left_clavicle
					{
						OFFSET	-43.2	22.4	-70.8
						CHANNELS 3  Xrotation Yrotation Zrotation
						JOINT left_shoulder
						{
							OFFSET	-93.9	-5.79999	48.7
							CHANNELS 3  Xrotation Yrotation Zrotation
							JOINT left_elbow
							{
								OFFSET	-291.4	-30.8	15.2
								CHANNELS 3  Xrotation Yrotation Zrotation
								JOINT left_lowarm_twist
								{
									OFFSET	-110.7	-3.89999	13.6
									CHANNELS 3  Xrotation Yrotation Zrotation
									JOINT left_hand
									{
										OFFSET	-110.7	-3.89999	13.6
										CHANNELS 3  Xrotation Yrotation Zrotation
										JOINT left_ee
										{
											OFFSET	-80.8	-5.10001	12.1
											CHANNELS 3  Xrotation Yrotation Zrotation
											End Site
											{
												OFFSET	1	0	0
											}
										}
									}
								}
							}
						}
					}
					JOINT right_clavicle
					{
						OFFSET	43.2	22.4	-70.8
						CHANNELS 3  Xrotation Yrotation Zrotation
						JOINT right_shoulder
						{
							OFFSET	93.9	-5.79999	48.7
							CHANNELS 3  Xrotation Yrotation Zrotation
							JOINT right_elbow
							{
								OFFSET	291.4	-30.8	15.2
								CHANNELS 3  Xrotation Yrotation Zrotation
								JOINT right_lowarm_twist
								{
									OFFSET	110.7	-3.89999	13.6
									CHANNELS 3  Xrotation Yrotation Zrotation
									JOINT right_hand
									{
										OFFSET	110.7	-3.89999	13.6
										CHANNELS 3  Xrotation Yrotation Zrotation
										JOINT right_ee
										{
											OFFSET	80.8	-5.10001	12.1
											CHANNELS 3  Xrotation Yrotation Zrotation
											End Site
											{
												OFFSET	1	0	0
											}
										}
									}
								}
							}
						}
					}
				}
			}
		}
	}
	JOINT left_hip
	{
		OFFSET	-82.8	-127.5	0.300001
		CHANNELS 3  Xrotation Yrotation Zrotation
		JOINT left_knee
		{
			OFFSET	-28.2	-396.7	2.2
			CHANNELS 3  Xrotation Yrotation Zrotation
			JOINT left_ankle
			{
				OFFSET	-11.7	-411.3	35.4
				CHANNELS 3  Xrotation Yrotation Zrotation
				JOINT left_toes
				{
					OFFSET	0	-60	-88.6
					CHANNELS 3  Xrotation Yrotation Zrotation
					JOINT left_foot_ee
					{
						OFFSET	-22.5	-16.5	-42.2
						CHANNELS 3  Xrotation Yrotation Zrotation
						End Site
						{
							OFFSET	1	0	0
						}
					}
				}
			}
		}
	}
	JOINT right_hip
	{
		OFFSET	82.8	-127.5	0.300001
		CHANNELS 3  Xrotation Yrotation Zrotation
		JOINT right_knee
		{
			OFFSET	28.2	-396.7	2.2
			CHANNELS 3  Xrotation Yrotation Zrotation
			JOINT right_ankle
			{
				OFFSET	11.7	-411.3	35.4
				CHANNELS 3  Xrotation Yrotation Zrotation
				JOINT right_toes
				{
					OFFSET	0	-60	-88.6
					CHANNELS 3  Xrotation Yrotation Zrotation
					JOINT right_foot_ee
					{
						OFFSET	22.5	-16.5	-42.2
						CHANNELS 3  Xrotation Yrotation Zrotation
						End Site
						{
							OFFSET	1	0	0
						}
					}
				}
			}
		}
	}
}
MOTION
Frames: 7
Frame Time: 0.02
2800.94 716.97 -1473.77 22.9886309887 67.4049910014 -16.9856419159 -2.57434 -0.463329 -2.28971 -2.57148 -0.31673 -2.31453 -2.55493 0.280531 -2.3192 -2.56243 -0.0891601 -2.33439 -20.0627 2.32408 6.11466 -19.9593 1.38067 6.64718 -0.0 0.0 -0.0 2.90757 2.87097 5.79248 21.4786 -6.18377 67.7342 3.62246 -60.8548 2.12808 -4.90647 -0.198499 0.594752 -1.87073 -2.16118 -13.596 -0.0 0.0 -0.0 6.23498 14.2297 -11.5362 -24.7108 17.3341 -67.6373 0.48903 13.6178 -0.0583908 54.5518 1.3136 6.58326 -0.175227 -11.2115 -3.51502 0.0 0.0 0.0 -19.4851 43.1673 -6.41464 -9.38028 0.271095 1.41245 41.3827 -1.46728 -5.0049 0.556195 -0.0 -0.0 -0.0 0.0 -0.0 23.8144 17.7168 -14.6449 -6.03846 -0.201105 -0.904478 39.2271 -9.5537 4.80493 -0.134834 0.0 0.0 0.0 0.0 0.0 
2749.57901726 719.851 -1493.94775884 25.7287547052 69.519464689 -21.9406425653 -2.74193 -0.437242 -2.08259 -2.73957 -0.303865 -2.10618 -2.72516 0.246405 -2.11367 -2.73138 -0.0904238 -2.12606 -19.7188 2.09821 5.02549 -19.6499 1.46609 5.53274 -0.0 0.0 -0.0 2.08297 2.18309 4.19012 15.176 -6.55103 70.9822 3.48758 -59.9221 2.01081 -4.85242 -0.196036 0.588295 -1.76005 -2.24358 -12.8704 -0.0 0.0 -0.0 6.16005 14.7777 -11.3401 -20.9697 18.8716 -66.8977 0.508024 14.1259 -0.0629447 54.9044 1.34186 6.61851 -0.218225 -11.2906 -3.27364 0.0 0.0 0.0 -20.6267 43.0006 -5.36949 -11.7141 0.302349 1.76917 39.6261 -2.50501 -4.86677 2.24076 -0.0 -0.0 -0.0 0.0 -0.0 22.0708 19.2974 -12.8313 -9.91369 -0.279519 -1.49387 39.4206 -8.85687 4.81793 0.607685 -0.0 -0.0 0.0 0.0 0.0 
2730.45706113 722.194 -1501.26946687 25.827685742 69.4818824145 -22.4866410871 -2.8975 -0.514697 -2.09251 -2.89514 -0.380533 -2.12101 -2.87755 0.181767 -2.14718 -2.88395 -0.159541 -2.14895 -19.4723 1.97579 4.7797 -19.4097 1.33472 5.248 -0.0 0.0 -0.0 1.39879 1.97134 2.87938 12.6401 -6.69846 72.7194 3.3638 -59.0173 1.90419 -4.78937 -0.19317 0.580761 -1.69526 -2.18968 -12.4 -0.0 0.0 -0.0 6.29955 14.8424 -11.6351 -19.9301 19.1591 -67.0504 0.501184 13.9432 -0.061286 54.9349 1.34431 6.62155 -0.251212 -11.3516 -3.08882 0.0 0.0 0.0 -21.2777 42.898 -4.32808 -12.2669 0.307621 1.85382 39.3597 -2.67123 -4.84546 2.29026 -0.0 -0.0 -0.0 0.0 -0.0 21.1028 19.5252 -12.3366 -10.8884 -0.292954 -1.64283 39.4451 -8.79874 4.81977 0.632568 -0.0 -0.0 0.0 0.0 0.0 
2696.49904727 725.666 -1510.6557174 29.6918951421 71.6917299457 -27.0340982407 -2.85262 -0.416843 -2.06111 -2.8503 -0.284874 -2.08344 -2.83672 0.263005 -2.08632 -2.84279 -0.0697151 -2.10166 -18.3805 2.09962 5.17161 -18.3066 1.26706 5.63551 -0.0 0.0 -0.0 0.0652858 1.73763 0.330701 9.16026 -7.73677 75.6461 3.0481 -56.4726 1.63714 -4.78551 -0.192995 0.580299 -1.60055 -1.66905 -11.5133 -0.0 0.0 -0.0 6.44741 15.2475 -11.9262 -17.711 19.7832 -67.3554 0.452558 12.6361 -0.0501072 54.9777 1.34776 6.62581 -0.315178 -11.7039 -2.82774 0.0 0.0 0.0 -21.572 41.7664 -3.64725 -13.2687 0.315093 2.00734 37.87 -2.42121 -4.71017 2.16603 -0.0 -0.0 -0.0 0.0 -0.0 19.6227 19.8775 -12.4737 -13.2995 -0.315281 -2.01207 39.3733 -8.71545 4.81295 0.541056 -0.0 -0.0 0.0 0.0 0.0 
2681.75267621 724.416 -1514.20691793 29.0300231624 72.1582895657 -26.7203293727 -2.52804 -0.315593 -2.09459 -2.52561 -0.181699 -2.11042 -2.51599 0.35803 -2.08776 -2.52207 0.0238915 -2.11809 -19.0648 1.71619 4.60718 -19.0056 0.889419 4.97412 -0.0 0.0 -0.0 -0.0641371 1.16584 0.0165052 6.21256 -7.57297 76.2212 2.81228 -54.3186 1.443 -4.46624 -0.178614 0.542097 -1.60405 -1.07448 -11.2667 -0.0 0.0 -0.0 6.17977 17.7758 -11.1696 -12.4173 20.1606 -65.9868 0.544161 15.0863 -0.0720577 55.6026 1.39845 6.68779 -0.24181 -11.1256 -3.05563 0.0 0.0 0.0 -21.7293 41.9638 -3.32239 -13.9201 0.318512 2.10723 37.0135 -0.631011 -4.61455 2.20255 -0.0 -0.0 -0.0 0.0 -0.0 19.2991 20.2035 -12.5098 -14.3737 -0.320222 -2.1768 39.3608 -8.54864 4.81097 0.568712 -0.0 -0.0 0.0 0.0 0.0 
2682.75377022 724.416 -1517.04560021 27.0971460196 70.9489143539 -24.6828971556 -2.52804 -0.315593 -2.09459 -2.52561 -0.181699 -2.11042 -2.51599 0.35803 -2.08776 -2.52207 0.0238915 -2.11809 -19.0648 1.71619 4.60718 -19.0056 0.889419 4.97412 -0.0 0.0 -0.0 -0.0641371 1.16584 0.0165052 6.21256 -7.57297 76.2212 2.81228 -54.3186 1.443 -4.46624 -0.178614 0.542097 -1.60405 -1.07448 -11.2667 -0.0 0.0 -0.0 6.17977 17.7758 -11.1696 -12.4173 20.1606 -65.9868 0.544161 15.0863 -0.0720577 55.6026 1.39845 6.68779 -0.24181 -11.1256 -3.05563 0.0 0.0 0.0 -21.7293 41.9638 -3.32239 -13.9201 0.318512 2.10723 37.0135 -0.631011 -4.61455 2.20255 -0.0 -0.0 -0.0 0.0 -0.0 19.2991 20.2035 -12.5098 -14.3737 -0.320222 -2.1768 39.3608 -8.54864 4.81097 0.568712 -0.0 -0.0 0.0 0.0 0.0 
2669.47237507 723.922 -1518.52874587 28.0291014007 71.3330183062 -26.0827124743 -2.53265 -0.281194 -1.9625 -2.53052 -0.15577 -1.97641 -2.5226 0.349439 -1.95151 -2.52791 0.0369126 -1.98219 -19.2079 1.73111 4.60362 -19.1489 0.93204 4.97964 -0.0 0.0 -0.0 -0.521653 0.936395 -0.886124 4.54386 -7.8018 76.841 2.52026 -51.2976 1.2103 -4.22077 -0.167702 0.512671 -1.53577 -0.768305 -10.6617 -0.0 0.0 -0.0 5.76095 18.3876 -10.2165 -8.99659 20.8951 -65.5912 0.574859 15.8954 -0.0802569 55.9351 1.42569 6.72055 -0.249145 -11.4281 -3.13342 0.0 0.0 0.0 -21.7204 40.9599 -3.44039 -14.5992 0.320867 2.2114 36.6622 -0.992015 -4.58505 2.23397 -0.0 -0.0 -0.0 0.0 -0.0 18.8402 20.4431 -12.5642 -15.73 -0.322047 -2.38489 39.3948 -8.33025 4.81291 0.490787 -0.0 -0.0 0.0 0.0 0.0 
